<svg width="42" height="32" viewBox="0 0 42 32" fill="none" xmlns="http://www.w3.org/2000/svg">
<g clip-path="url(#clip0_306_22)">
<path opacity="0.15" fill-rule="evenodd" clip-rule="evenodd" d="M1.5 6.89844C1.5 5.79388 2.39543 4.89844 3.5 4.89844H38.3C39.4046 4.89844 40.3 5.79388 40.3 6.89844V27.8873C40.3 28.9919 39.4046 29.8873 38.3 29.8873H24.2108C28.4393 28.5313 31.5 24.5688 31.5 19.8918C31.5 14.0954 26.799 9.39644 21 9.39644C15.201 9.39644 10.5 14.0954 10.5 19.8918C10.5 24.5688 13.5607 28.5313 17.7892 29.8873H3.5C2.39543 29.8873 1.5 28.9919 1.5 27.8873V6.89844ZM21 24.8896C23.7614 24.8896 26 22.652 26 19.8918C26 17.1316 23.7614 14.894 21 14.894C18.2386 14.894 16 17.1316 16 19.8918C16 22.652 18.2386 24.8896 21 24.8896Z" fill="#BFF500"/>
<path d="M2.04688 21.5659C2.04688 21.8203 1.84039 22.0267 1.58594 22.0267C1.33149 22.0267 1.125 21.8203 1.125 21.5659V19.197C1.125 18.9424 1.33145 18.7363 1.58594 18.7363C1.84043 18.7363 2.04688 18.9424 2.04688 19.197V21.5659Z" fill="#BFF500" stroke="#BFF500" stroke-width="0.25"/>
<path d="M38.7448 4.72408H36.3178V4.44771C36.3178 3.66498 35.6806 3.02775 34.8972 3.02775H34.6484V2.32036C34.6484 1.53732 34.0109 0.900391 33.2278 0.900391H30.4285C29.6454 0.900391 29.0079 1.53732 29.0079 2.32036V3.02775H28.7591C27.9758 3.02775 27.3386 3.66467 27.3386 4.44771V4.72408H18.9984V4.114C18.9984 3.33127 18.3612 2.69403 17.5778 2.69403H16.448C15.6649 2.69403 15.0274 3.33096 15.0274 4.114V4.72408H13.6566V3.27971C13.6566 2.49698 13.0194 1.85975 12.236 1.85975H6.09828C5.31519 1.85975 4.67768 2.49698 4.67768 3.27971V4.72408H3.25525C2.01166 4.72408 1 5.7356 1 6.97834V16.6464C1 16.97 1.26245 17.232 1.58594 17.232C1.90943 17.232 2.17188 16.97 2.17188 16.6464V11.0842H5.37867C5.63654 12.028 6.50172 12.7241 7.5265 12.7241C8.55159 12.7241 9.41646 12.028 9.67433 11.0842H14.3277C11.6247 13.1152 9.87331 16.3462 9.87331 19.9786C9.87331 22.3634 10.6283 24.5749 11.9116 26.3878H2.17188V24.1165C2.17188 23.7929 1.90943 23.5308 1.58594 23.5308C1.26245 23.5308 1 23.7929 1 24.1165V27.78C1 29.023 2.01166 30.0343 3.25525 30.0343H16.2491C17.6907 30.7176 19.3014 31.1004 21 31.1004C22.6993 31.1004 24.3103 30.7173 25.7522 30.0334C25.7568 30.0337 25.7611 30.0343 25.7657 30.0343H38.7448C39.9884 30.0343 41.0001 29.023 41.0001 27.78V6.97834C41.0001 5.7356 39.9884 4.72408 38.7448 4.72408ZM30.1797 2.32036C30.1797 2.1834 30.2914 2.07175 30.4288 2.07175H33.2278C33.3649 2.07175 33.4766 2.18309 33.4766 2.32036V3.02775H30.1801L30.1797 2.32036ZM28.5104 4.44771C28.5104 4.31075 28.6221 4.1991 28.7595 4.1991H34.8972C35.0342 4.1991 35.1459 4.31075 35.1459 4.44771V4.72408H28.5107L28.5104 4.44771ZM16.1993 4.114C16.1993 3.97704 16.311 3.86539 16.448 3.86539H17.5778C17.7151 3.86539 17.8265 3.97704 17.8265 4.114V4.72408H16.1993V4.114ZM5.84956 3.27971C5.84956 3.14275 5.96125 3.0311 6.09828 3.0311H12.2363C12.3733 3.0311 12.485 3.14275 12.485 3.27971V4.72408H5.84956V3.27971ZM7.5265 11.5527C6.94514 11.5527 6.47181 11.0799 6.47181 10.4986C6.47181 9.9174 6.94514 9.44428 7.5265 9.44428C8.10817 9.44428 8.58119 9.9174 8.58119 10.4986C8.58119 11.0799 8.10817 11.5527 7.5265 11.5527ZM9.67433 9.91283C9.41646 8.96903 8.55159 8.27293 7.5265 8.27293C6.50141 8.27293 5.63654 8.96903 5.37867 9.91283H2.17188V6.97834C2.17188 6.38137 2.65802 5.89544 3.25525 5.89544H38.7448C39.3421 5.89544 39.8282 6.38137 39.8282 6.97834V9.91283H38.0844V7.78486C38.0844 7.46152 37.822 7.19919 37.4985 7.19919H32.0453C31.7218 7.19919 31.4594 7.46152 31.4594 7.78486V9.91283H25.7266C24.2627 9.22588 22.651 8.85708 21 8.85708C19.31 8.85708 17.7072 9.23624 16.2713 9.91283H9.67433ZM32.6312 9.91283V8.37054H36.9125V9.91283H32.6312ZM3.25525 28.8629C2.65802 28.8629 2.17188 28.377 2.17188 27.78V27.5592H12.8665C13.3099 28.0344 13.7942 28.4709 14.3139 28.8629H3.25525ZM11.0452 19.9789C11.0452 14.4921 15.5111 10.0285 21 10.0285C23.847 10.0285 26.5637 11.2516 28.454 13.3842C28.6685 13.6264 29.0387 13.649 29.281 13.4343C29.5233 13.2198 29.5456 12.8498 29.3311 12.6075C28.8284 12.0405 28.273 11.5317 27.6761 11.0842H39.8282V26.3878H30.0885C30.9833 25.1237 31.6205 23.6656 31.9247 22.0901H33.4576C34.3219 22.0901 35.0253 21.3872 35.0253 20.5231V19.0641C35.0253 18.1999 34.3222 17.4971 33.4576 17.4971H31.8448C31.6318 16.5652 31.301 15.6614 30.8569 14.8164C30.7065 14.53 30.3522 14.4195 30.0659 14.5703C29.7794 14.7206 29.6689 15.0744 29.8193 15.3609C30.5621 16.7751 30.9549 18.372 30.9549 19.9789C30.9549 25.4656 26.4892 29.9293 21 29.9293C15.5111 29.9293 11.0452 25.4653 11.0452 19.9789ZM32.0483 18.6682H33.4576C33.6758 18.6682 33.8535 18.8457 33.8535 19.0638V20.5231C33.8535 20.7412 33.6758 20.9188 33.4576 20.9188H32.0865C32.1127 20.6088 32.1268 20.2952 32.1268 19.9786C32.1268 19.5403 32.1002 19.1026 32.0483 18.6682ZM38.7448 28.8629H27.6861C28.2059 28.4709 28.6902 28.0344 29.1336 27.5592H39.8282V27.78C39.8282 28.377 39.3421 28.8629 38.7448 28.8629Z" fill="#BFF500" stroke="#BFF500" stroke-width="0.25"/>
<path d="M13.2415 19.9782C13.2415 15.7019 16.7219 12.2227 21.0001 12.2227C25.2783 12.2227 28.7587 15.7019 28.7587 19.9782C28.7587 24.2542 25.2783 27.7333 21.0001 27.7333C16.7219 27.7333 13.2415 24.2542 13.2415 19.9782ZM14.1633 19.9782C14.1633 23.7464 17.2302 26.8118 21.0001 26.8118C24.77 26.8118 27.8368 23.7464 27.8368 19.9782C27.8368 16.21 24.77 13.1442 21.0001 13.1442C17.2302 13.1442 14.1633 16.21 14.1633 19.9782Z" fill="#BFF500" stroke="#BFF500" stroke-width="0.25"/>
<path d="M15.6189 19.9786C15.6189 17.0127 18.033 14.5996 20.9999 14.5996C23.9671 14.5996 26.3812 17.0127 26.3812 19.9786C26.3812 22.9444 23.9671 25.3572 20.9999 25.3572C18.0327 25.3572 15.6189 22.9444 15.6189 19.9786ZM16.5408 19.9786C16.5408 22.4364 18.541 24.4357 20.9999 24.4357C23.4588 24.4357 25.4593 22.4364 25.4593 19.9786C25.4593 17.5205 23.4588 15.5211 20.9999 15.5211C18.541 15.5211 16.5408 17.5205 16.5408 19.9786Z" fill="#BFF500" stroke="#BFF500" stroke-width="0.25"/>
</g>
<defs>
<clipPath id="clip0_306_22">
<rect width="42" height="32" fill="white"/>
</clipPath>
</defs>
</svg>
